<svg xmlns="http://www.w3.org/2000/svg" viewBox="0 0 64 64" role="img">
  <title>Jimeng AI</title>
  <defs>
    <linearGradient id="jimengGradient" x1="10" x2="54" y1="54" y2="10" gradientUnits="userSpaceOnUse">
      <stop offset="0" stop-color="#22d3ee"/>
      <stop offset=".56" stop-color="#7c3aed"/>
      <stop offset="1" stop-color="#facc15"/>
    </linearGradient>
  </defs>
  <rect width="64" height="64" rx="18" fill="#fff"/>
  <path d="M44.2 15.4c-3.7-2.5-8.4-3.6-13.2-2.7-9.7 1.8-16.3 10.8-14.9 20.6 1.5 10.2 11.1 17.4 21.2 15.8 3.6-.6 6.8-2.2 9.3-4.5-2 .7-4.3 1-6.6.8-10.1-.8-17.6-9.7-16.8-19.8.5-6.1 3.9-11.3 8.8-14.1 4.4-2.5 9-2.1 12.2 3.9Z" fill="url(#jimengGradient)"/>
  <path d="M46.9 21.4l1.8 5.4 5.4 1.8-5.4 1.8-1.8 5.4-1.8-5.4-5.4-1.8 5.4-1.8 1.8-5.4Z" fill="#0f172a"/>
</svg>
