<svg xmlns="http://www.w3.org/2000/svg" viewBox="0 0 64 64" role="img">
  <title>Tongyi Wanxiang</title>
  <defs>
    <linearGradient id="wanxiangGradient" x1="11" x2="53" y1="53" y2="11" gradientUnits="userSpaceOnUse">
      <stop offset="0" stop-color="#14b8a6"/>
      <stop offset=".48" stop-color="#6366f1"/>
      <stop offset="1" stop-color="#facc15"/>
    </linearGradient>
  </defs>
  <rect width="64" height="64" rx="18" fill="#fff"/>
  <path d="M32 12c11 0 20 9 20 20s-9 20-20 20-20-9-20-20 9-20 20-20Zm0 8.3c-6.5 0-11.7 5.2-11.7 11.7S25.5 43.7 32 43.7 43.7 38.5 43.7 32 38.5 20.3 32 20.3Z" fill="url(#wanxiangGradient)"/>
  <path d="M16.6 32c4.4-5.8 9.5-8.7 15.4-8.7 5.9 0 11 2.9 15.4 8.7-4.4 5.8-9.5 8.7-15.4 8.7-5.9 0-11-2.9-15.4-8.7Z" fill="#fff"/>
  <circle cx="32" cy="32" r="6.4" fill="#0f172a"/>
</svg>
