<svg xmlns="http://www.w3.org/2000/svg" width="256" height="256" viewBox="0 0 256 256" fill="none"><g clip-path="url(#clip0_2030_30)">
<rect width="256" height="256" fill="#651A39"></rect>
<path fill-rule="evenodd" clip-rule="evenodd" d="M59.3605 198.629C59.3605 208.027 65.4586 214.123 74.8543 214.123H120.12C147.125 214.123 169.214 204.985 184.231 188.99H59.3605V198.629ZM120.12 42.2H74.8542C65.4585 42.2 59.3604 48.2951 59.3604 57.6924V67.3316H184.231C169.214 51.3367 147.125 42.2 120.12 42.2ZM159.619 152.66C159.619 160.263 164.572 165.195 172.208 165.195H199.33C202.406 157.565 204.471 149.176 205.432 140.125H172.208C164.572 140.125 159.619 145.057 159.619 152.66ZM122.031 103.727C122.031 111.33 126.984 116.262 134.62 116.262H205.44C204.48 107.21 202.415 98.8218 199.339 91.192H134.62C126.984 91.192 122.031 96.1236 122.031 103.727ZM134.607 152.66C134.607 145.057 129.654 140.125 122.021 140.125H59.3605V165.195H122.021C129.654 165.195 134.607 160.263 134.607 152.66ZM97.0104 103.727C97.0104 96.1236 92.0574 91.192 84.4246 91.192H59.3605V116.262H84.4246C92.0574 116.262 97.0104 111.33 97.0104 103.727V103.727Z" fill="#F73B3B"></path>
</g><defs>
<clipPath id="clip0_2030_30">
<rect width="256" height="256" rx="32" fill="white"></rect>
</clipPath>
</defs></svg>