<svg role="img" viewBox="0 0 24 24" xmlns="http://www.w3.org/2000/svg">
  <title>Doubao</title>
  <defs>
    <linearGradient id="doubao-a" x1="3" x2="21" y1="5" y2="20" gradientUnits="userSpaceOnUse">
      <stop stop-color="#24D6A8"/>
      <stop offset=".52" stop-color="#3BA8FF"/>
      <stop offset="1" stop-color="#7C5CFF"/>
    </linearGradient>
  </defs>
  <path fill="url(#doubao-a)" d="M12 2.5c5.15 0 9.33 3.88 9.33 8.66 0 4.8-4.18 8.67-9.33 8.67a10.3 10.3 0 0 1-2.72-.36l-3.76 1.82a.68.68 0 0 1-.96-.73l.72-3.18a8.28 8.28 0 0 1-2.61-6.22C2.67 6.38 6.85 2.5 12 2.5Z"/>
  <path fill="#fff" fill-opacity=".92" d="M7.35 10.18c.86-2.02 2.52-3.2 4.58-3.2 2.4 0 4.56 1.61 4.56 3.86 0 1.83-1.34 3.25-3.14 3.25-.98 0-1.73-.34-2.34-.93-.42.62-1.02.93-1.79.93-1.36 0-2.43-1.08-2.43-2.54 0-.48.1-.94.26-1.37Zm3.02.52c-.2.24-.32.58-.32.93 0 .52.32.88.78.88.58 0 1.03-.54 1.03-1.22 0-.5-.3-.82-.77-.82-.27 0-.52.08-.72.23Zm2.86.58c.02.72.5 1.18 1.18 1.18.72 0 1.23-.62 1.23-1.5 0-1.33-1.35-2.27-3.03-2.27-.32 0-.64.04-.93.13.9.24 1.55 1.14 1.55 2.46Z"/>
</svg>
