<svg role="img" viewBox="0 0 24 24" xmlns="http://www.w3.org/2000/svg">
  <title>Microsoft Copilot</title>
  <path fill="#00A4EF" d="M6.3 4.2c1.15-1.3 3.18-1.38 4.48-.18l1.62 1.5-3.58 3.85-2.74-2.54a1.9 1.9 0 0 0-2.68.1 1.9 1.9 0 0 0 .1 2.68l3.3 3.06-3.5 3.78-2.18-2.02A6.25 6.25 0 0 1 6.3 4.2Z"/>
  <path fill="#7FBA00" d="M12.4 5.52 14.05 7a1.9 1.9 0 0 0 2.68-.1 1.9 1.9 0 0 0-.1-2.68l-.94-.87A3.14 3.14 0 0 1 20 3.5l.87.8a6.25 6.25 0 0 1 .32 8.83c-1.18 1.28-3.2 1.36-4.48.18l-1.9-1.76 3.58-3.86 1.22 1.13a1.9 1.9 0 0 0 2.68-.1 1.9 1.9 0 0 0-.1-2.68L18.9 2.98 12.4 5.52Z"/>
  <path fill="#F25022" d="M6.8 12.67 10.4 8.8l3.52 3.27-3.58 3.85-3.54-3.25Z"/>
  <path fill="#FFB900" d="m10.33 15.92 2.9 2.7a1.9 1.9 0 0 0 2.68-.1 1.9 1.9 0 0 0-.1-2.68l-1-.93 3.58-3.86 1.06.99a6.25 6.25 0 0 1-8.5 9.16L7.8 18.3l2.53-2.38Z"/>
</svg>
