<svg role="img" viewBox="0 0 64 64" xmlns="http://www.w3.org/2000/svg">
  <title>通义千问</title>
  <rect width="64" height="64" rx="18" fill="#F5F7FF"/>
  <path fill="#6B5CFF" d="M15 19.6C15 13.2 20.2 8 26.6 8h14.8C47.8 8 53 13.2 53 19.6v24.8C53 50.8 47.8 56 41.4 56H22.8C16.9 56 12 51.1 12 45.2c0-4.2 2.4-8 6.2-9.8L32 28.8c3.1-1.5 5-4.6 5-8.1 0-4.2-3.4-7.7-7.7-7.7h-2.7c-4.3 0-7.8 3.5-7.8 7.8v3.8H15v-5Z"/>
  <path fill="#00C2FF" d="M49 16.8c1.2 1.7 1.9 3.8 1.9 6.1v20.5c0 5-4.1 9.1-9.1 9.1H23.2c-3.9 0-7.1-3.2-7.1-7.1 0-2.8 1.6-5.3 4.1-6.5L35 31.8c5.6-2.7 9.2-8.4 9.2-14.7v-.3H49Z" opacity=".9"/>
  <circle cx="36.8" cy="22.5" r="5.2" fill="#FFFFFF" opacity=".9"/>
</svg>
