<svg width="64" height="64" viewBox="0 0 64 64" fill="none" xmlns="http://www.w3.org/2000/svg">
<rect width="64" height="64" rx="12" fill="#03061E"/>
<path d="M47.9149 14.6026C42.5206 12.8158 37.8813 16.6062 36.7998 20.0752C36.7998 20.0752 32.9075 32.5748 31.2488 37.7915C30.4573 40.2783 28.4955 44.3508 24.8017 44.3508C21.7924 44.3508 20.246 41.527 19.5929 39.8447L15.1077 27.8858C14.5879 26.6267 15.1312 24.1138 17.2158 23.3614C19.4414 22.5621 20.8729 24.4246 21.2439 25.412L26.8315 39.7271C28.1637 38.0109 29.0101 35.2184 29.5613 33.2409L25.891 23.6096C24.1513 19.1139 19.5537 17.0711 15.2879 18.6411C11.8346 19.9133 8.51178 24.2705 10.3195 29.7458L14.9484 41.6524C15.651 43.4574 18.4279 49.3507 24.7025 49.3507C32.2336 49.3507 35.06 42.9298 36.6274 37.8542C37.411 35.3151 41.7108 21.5877 41.7108 21.5877C42.3351 19.5371 44.8742 18.9467 46.4599 19.464C47.5779 19.8271 49.5998 21.3709 48.9467 23.7637C48.8239 24.2 45.3967 35.2445 44.1324 38.6039C43.4715 40.3567 41.797 44.1627 37.9857 43.6324C36.8233 46.2055 35.8594 47.6997 34.3991 49.0424C39.1534 51.2942 46.0837 49.0267 49.0016 40.2104C50.0857 36.932 53.8917 25.1116 53.8917 25.1116C54.9993 21.4806 53.0244 16.2953 47.9149 14.6026Z" fill="url(#paint0_linear_192_1894)"/>
<path d="M26.8316 39.7271C28.1638 38.0109 29.0102 35.2184 29.5614 33.2409L25.9695 23.8159C24.4179 24.4063 22.874 25.0202 21.338 25.6497L26.8316 39.7271Z" fill="url(#paint1_linear_192_1894)"/>
<path d="M47.2488 29.1866C46.7734 30.6234 44.4302 37.7992 44.1272 38.6038C43.4663 40.3566 41.7918 44.1626 37.9806 43.6324C36.8181 46.2054 35.8542 47.6996 34.394 49.0423C39.1482 51.2941 46.0785 49.0266 48.9964 40.2103C49.2655 39.3953 49.7043 38.05 50.2111 36.4905L47.2488 29.1866Z" fill="url(#paint2_linear_192_1894)"/>
<defs>
<linearGradient id="paint0_linear_192_1894" x1="11.2143" y1="20.8732" x2="58.1754" y2="42.4602" gradientUnits="userSpaceOnUse">
<stop stop-color="#40EDD8"/>
<stop offset="0.0241" stop-color="#38E7E2"/>
<stop offset="0.0844" stop-color="#28DAF7"/>
<stop offset="0.1241" stop-color="#22D5FF"/>
<stop offset="0.3602" stop-color="#1ABFFF"/>
<stop offset="0.8502" stop-color="#0786FE"/>
<stop offset="0.9088" stop-color="#047FFE"/>
</linearGradient>
<linearGradient id="paint1_linear_192_1894" x1="36.2823" y1="43.3662" x2="27.0851" y2="32.5748" gradientUnits="userSpaceOnUse">
<stop offset="3.59356e-07" stop-color="#8455F5"/>
<stop offset="1" stop-color="#8455F5" stop-opacity="0"/>
</linearGradient>
<linearGradient id="paint2_linear_192_1894" x1="26.0113" y1="47.9631" x2="39.4873" y2="41.5303" gradientUnits="userSpaceOnUse">
<stop offset="3.59356e-07" stop-color="#8455F5"/>
<stop offset="1" stop-color="#8455F5" stop-opacity="0"/>
</linearGradient>
</defs>
</svg>
