<svg role="img" viewBox="0 0 64 64" xmlns="http://www.w3.org/2000/svg">
  <title>文心一言</title>
  <rect width="64" height="64" rx="18" fill="#F1F7FF"/>
  <path fill="#246BFE" d="M32 9c11.6 0 21 9.4 21 21 0 13-11.8 23.3-24.5 20.6-8-1.7-15.3-8.2-16.2-16.8-.7-6.6 1.8-12.1 6.2-16.4C22.2 13.8 26.9 9 32 9Z"/>
  <path fill="#67E8F9" d="M48.5 23.5c3.8 8.3 1.1 18.5-7 23.3-8.4 5-19.5 2.1-24.6-6.3-2.8-4.7-3-10.2-1.1-14.9 3.4 5.3 9.9 8.9 17.2 8.9 6.6 0 12.4-4 15.5-11Z"/>
  <path fill="#FFFFFF" d="M24.5 28.5c0-4.1 3.3-7.5 7.5-7.5s7.5 3.4 7.5 7.5S36.2 36 32 36s-7.5-3.4-7.5-7.5Z" opacity=".92"/>
</svg>
