<svg width="26" height="17" viewBox="0 0 26 17" fill="none" xmlns="http://www.w3.org/2000/svg">
<path d="M3.33034 15.9536C2.96683 15.9536 2.59933 15.8842 2.24844 15.7415C1.18649 15.3095 0.5 14.2988 0.5 13.167V3.28667C0.499336 2.15423 1.18582 1.1442 2.24844 0.712176C3.31107 0.280147 4.52122 0.519727 5.33198 1.32291L9.205 5.16011L7.17877 7.14482L3.35758 3.35868V13.095L10.7508 5.77673C11.2851 5.24782 11.9968 4.95587 12.755 4.95587H12.7584C13.5173 4.95653 14.2297 5.24979 14.764 5.78066L22.1106 13.0839V3.36981L18.2064 7.25479L16.1755 5.27466L20.1316 1.33862C20.941 0.532818 22.1525 0.291275 23.2165 0.721995C24.2811 1.15337 24.9682 2.16405 24.9682 3.2978V13.1566C24.9682 14.2897 24.2804 15.301 23.2165 15.7324C22.1525 16.1637 20.9417 15.9222 20.1316 15.1171L12.755 7.7837L5.33198 15.1315C4.78903 15.6689 4.06733 15.9536 3.331 15.9536H3.33034Z" stroke="#F5F4F1"/>
</svg>
