<svg role="img" viewBox="0 0 64 64" xmlns="http://www.w3.org/2000/svg">
  <title>讯飞星火</title>
  <rect width="64" height="64" rx="18" fill="#FFF4F1"/>
  <path fill="#F97316" d="M34.8 7.8c.9 8 4.7 13.3 11.5 16 2.5 1 5.5 1.5 9 1.5-5.9 3.5-9.1 7.9-9.5 13.3-.4 5 1.6 9.8 6 14.5-7.6-3.6-13.6-3.4-18 .6-3.3 3-5.2 7.2-5.7 12.5-2.6-7.4-6.9-12.1-12.9-14.2-3.7-1.3-8.1-1.3-13.2 0 6.3-4.8 9.2-10 8.6-15.7-.5-4.4-3.1-8.2-7.9-11.3 8.3.8 14.4-.8 18.3-4.9 3-3.1 4.2-7.3 3.8-12.8 3.1 5.1 6.5 8.6 10 10.5Z"/>
  <path fill="#EF4444" d="M32 19.5c1.6 4 4.4 6.7 8.3 8.1-3.5 2.1-5.2 4.8-5.1 8.1.1 2.8 1.6 5.4 4.4 7.9-4.4-1.6-8-1.1-10.6 1.6-1.9 1.9-3.1 4.4-3.6 7.5-1.6-4.5-4.3-7.3-8-8.5 4.1-2.3 6-5.3 5.6-8.9-.3-2.7-2.1-5-5.3-6.9 4.7.2 8.2-.9 10.5-3.2 1.8-1.8 3-3.7 3.8-5.7Z"/>
  <circle cx="32" cy="34" r="4.8" fill="#FFFFFF" opacity=".94"/>
</svg>
